<svg width="41" height="37" viewBox="0 0 41 37" fill="none" xmlns="http://www.w3.org/2000/svg">
<path fill-rule="evenodd" clip-rule="evenodd" d="M17.4707 18.5195C18.0122 18.4112 18.539 18.7624 18.6474 19.304L20.6474 29.304C20.7557 29.8455 20.4044 30.3723 19.8629 30.4807C19.3213 30.589 18.7945 30.2377 18.6862 29.6962L16.6862 19.6962C16.5779 19.1546 16.9291 18.6278 17.4707 18.5195Z" fill="#00CCEA"/>
<path fill-rule="evenodd" clip-rule="evenodd" d="M9.66668 2.5C5.80069 2.5 2.66668 5.63401 2.66668 9.5C2.66668 13.366 5.80069 16.5 9.66668 16.5C13.5327 16.5 16.6667 13.366 16.6667 9.5C16.6667 5.63401 13.5327 2.5 9.66668 2.5ZM0.666679 9.5C0.666679 4.52944 4.69612 0.5 9.66668 0.5C14.6372 0.5 18.6667 4.52944 18.6667 9.5C18.6667 14.4706 14.6372 18.5 9.66668 18.5C4.69612 18.5 0.666679 14.4706 0.666679 9.5Z" fill="#FF7F37"/>
<path fill-rule="evenodd" clip-rule="evenodd" d="M9.66668 6.5C8.00982 6.5 6.66668 7.84315 6.66668 9.5C6.66668 11.1569 8.00982 12.5 9.66668 12.5C11.3235 12.5 12.6667 11.1569 12.6667 9.5C12.6667 7.84315 11.3235 6.5 9.66668 6.5ZM4.66668 9.5C4.66668 6.73858 6.90526 4.5 9.66668 4.5C12.4281 4.5 14.6667 6.73858 14.6667 9.5C14.6667 12.2614 12.4281 14.5 9.66668 14.5C6.90526 14.5 4.66668 12.2614 4.66668 9.5Z" fill="#FDDA24"/>
<path fill-rule="evenodd" clip-rule="evenodd" d="M9.66668 24.5C6.90526 24.5 4.66668 26.7386 4.66668 29.5C4.66668 32.2614 6.90526 34.5 9.66668 34.5C12.4281 34.5 14.6667 32.2614 14.6667 29.5C14.6667 26.7386 12.4281 24.5 9.66668 24.5ZM2.66668 29.5C2.66668 25.634 5.80069 22.5 9.66668 22.5C13.5327 22.5 16.6667 25.634 16.6667 29.5C16.6667 33.366 13.5327 36.5 9.66668 36.5C5.80069 36.5 2.66668 33.366 2.66668 29.5Z" fill="#9063CD"/>
<path fill-rule="evenodd" clip-rule="evenodd" d="M33.6667 24.5C30.9053 24.5 28.6667 26.7386 28.6667 29.5C28.6667 32.2614 30.9053 34.5 33.6667 34.5C36.4281 34.5 38.6667 32.2614 38.6667 29.5C38.6667 26.7386 36.4281 24.5 33.6667 24.5ZM26.6667 29.5C26.6667 25.634 29.8007 22.5 33.6667 22.5C37.5327 22.5 40.6667 25.634 40.6667 29.5C40.6667 33.366 37.5327 36.5 33.6667 36.5C29.8007 36.5 26.6667 33.366 26.6667 29.5Z" fill="#00CCEA"/>
<path fill-rule="evenodd" clip-rule="evenodd" d="M30.3069 16.7318C30.7311 17.0854 30.7885 17.7159 30.4349 18.1402L20.4349 30.1402C20.2449 30.3682 19.9635 30.5 19.6667 30.5H9.66668C9.11439 30.5 8.66668 30.0523 8.66668 29.5C8.66668 28.9477 9.11439 28.5 9.66668 28.5H19.1983L28.8985 16.8598C29.252 16.4356 29.8826 16.3782 30.3069 16.7318Z" fill="#00C389"/>
<path fill-rule="evenodd" clip-rule="evenodd" d="M22.6667 7.5C22.6667 6.94772 23.1144 6.5 23.6667 6.5H27.6667C28.1176 6.5 28.5128 6.80182 28.6314 7.23688L34.6314 29.2369C34.7768 29.7697 34.4626 30.3194 33.9298 30.4648C33.397 30.6101 32.8472 30.2959 32.7019 29.7631L26.9029 8.5H23.6667C23.1144 8.5 22.6667 8.05228 22.6667 7.5Z" fill="#F5B6CD"/>
<path fill-rule="evenodd" clip-rule="evenodd" d="M14.6667 19.5C14.6667 18.9477 15.1144 18.5 15.6667 18.5H21.6667C22.219 18.5 22.6667 18.9477 22.6667 19.5C22.6667 20.0523 22.219 20.5 21.6667 20.5H15.6667C15.1144 20.5 14.6667 20.0523 14.6667 19.5Z" fill="#FDDA24"/>
</svg>
