<svg width="40" height="34" viewBox="0 0 40 34" fill="none" xmlns="http://www.w3.org/2000/svg">
<path fill-rule="evenodd" clip-rule="evenodd" d="M3 10C2.45228 10 2 10.4523 2 11C2 11.5477 2.45228 12 3 12H7C7.55228 12 8 12.4477 8 13C8 13.5523 7.55228 14 7 14H3C1.34772 14 0 12.6523 0 11C0 9.34772 1.34772 8 3 8H7C7.55228 8 8 8.44772 8 9C8 9.55228 7.55228 10 7 10H3ZM32 9C32 8.44772 32.4477 8 33 8H37C38.6523 8 40 9.34772 40 11C40 12.6523 38.6523 14 37 14H33C32.4477 14 32 13.5523 32 13V9ZM34 10V12H37C37.5477 12 38 11.5477 38 11C38 10.4523 37.5477 10 37 10H34Z" fill="#F5B6CD"/>
<path fill-rule="evenodd" clip-rule="evenodd" d="M8 18C6.89543 18 6 18.8954 6 20C6 21.1046 6.89543 22 8 22C9.10457 22 10 21.1046 10 20C10 18.8954 9.10457 18 8 18ZM4 20C4 17.7909 5.79086 16 8 16C10.2091 16 12 17.7909 12 20C12 22.2091 10.2091 24 8 24C5.79086 24 4 22.2091 4 20Z" fill="#FF7F37"/>
<path fill-rule="evenodd" clip-rule="evenodd" d="M32 18C30.8954 18 30 18.8954 30 20C30 21.1046 30.8954 22 32 22C33.1046 22 34 21.1046 34 20C34 18.8954 33.1046 18 32 18ZM28 20C28 17.7909 29.7909 16 32 16C34.2091 16 36 17.7909 36 20C36 22.2091 34.2091 24 32 24C29.7909 24 28 22.2091 28 20Z" fill="#FF7F37"/>
<path fill-rule="evenodd" clip-rule="evenodd" d="M4 27C4 26.4477 4.44772 26 5 26H13C13.5523 26 14 26.4477 14 27V30C14 32.2123 12.2123 34 10 34H8C5.78772 34 4 32.2123 4 30V27ZM6 28V30C6 31.1077 6.89228 32 8 32H10C11.1077 32 12 31.1077 12 30V28H6ZM27 26C27.5523 26 28 26.4477 28 27V30C28 31.1077 28.8923 32 30 32H32C33.1077 32 34 31.1077 34 30V27C34 26.4477 34.4477 26 35 26C35.5523 26 36 26.4477 36 27V30C36 32.2123 34.2123 34 32 34H30C27.7877 34 26 32.2123 26 30V27C26 26.4477 26.4477 26 27 26Z" fill="#9063CD"/>
<path fill-rule="evenodd" clip-rule="evenodd" d="M7.59361 3.3356C7.91457 1.40987 9.59477 0 11.54 0H28.46C30.4052 0 32.0854 1.40987 32.4064 3.3356L33.9865 12.8359C34.0347 13.1258 33.9529 13.4223 33.7629 13.6465C33.5729 13.8707 33.2939 14 33 14H7.00001C6.70611 14 6.4271 13.8707 6.2371 13.6465C6.04709 13.4223 5.96534 13.1258 6.01356 12.8359L7.59361 3.3356ZM9.56642 3.6643L8.18006 12H31.82L30.4336 3.6644C30.4336 3.66429 30.4336 3.66451 30.4336 3.6644C30.2744 2.7103 29.4347 2 28.46 2H11.54C10.5654 2 9.72561 2.71019 9.56642 3.6643Z" fill="#FDDA24"/>
<path fill-rule="evenodd" clip-rule="evenodd" d="M7 14C4.23228 14 2 16.2323 2 19V26H17.14C17.6923 26 18.14 26.4477 18.14 27C18.14 27.5523 17.6923 28 17.14 28H1C0.447715 28 0 27.5523 0 27V19C0 15.1277 3.12772 12 7 12H33C33.5523 12 34 12.4477 34 13C34 13.5523 33.5523 14 33 14H7Z" fill="#00CCEA"/>
<path fill-rule="evenodd" clip-rule="evenodd" d="M32.0003 13C32.0003 12.4477 32.448 12 33.0003 12C36.8726 12 40.0003 15.1277 40.0003 19V27C40.0003 27.5523 39.5526 28 39.0003 28H17.1403C16.588 28 16.1403 27.5523 16.1403 27C16.1403 26.4477 16.588 26 17.1403 26H38.0003V19C38.0003 16.2323 35.768 14 33.0003 14C32.448 14 32.0003 13.5523 32.0003 13Z" fill="#00C389"/>
</svg>
