<svg width="38" height="37" viewBox="0 0 38 37" fill="none" xmlns="http://www.w3.org/2000/svg">
<path fill-rule="evenodd" clip-rule="evenodd" d="M25.8945 7.65365C26.1414 8.14763 25.9412 8.7483 25.4472 8.99529C23.3674 10.0352 22 12.1 22 14.5009V26.5009H34V14.5009C34 12.1 32.6327 10.0352 30.5528 8.99529C30.0588 8.7483 29.8586 8.14763 30.1056 7.65365C30.3526 7.15967 30.9533 6.95945 31.4472 7.20644C34.1674 8.56651 36 11.3017 36 14.5009V27.5009C36 28.0532 35.5523 28.5009 35 28.5009H21C20.4477 28.5009 20 28.0532 20 27.5009V14.5009C20 11.3017 21.8327 8.56651 24.5528 7.20644C25.0468 6.95945 25.6475 7.15967 25.8945 7.65365Z" fill="#9063CD"/>
<path fill-rule="evenodd" clip-rule="evenodd" d="M9.00003 2.5C5.13404 2.5 2.00003 5.63401 2.00003 9.5C2.00003 13.366 5.13404 16.5 9.00003 16.5C12.866 16.5 16 13.366 16 9.5C16 5.63401 12.866 2.5 9.00003 2.5ZM3.05176e-05 9.5C3.05176e-05 4.52944 4.02947 0.5 9.00003 0.5C13.9706 0.5 18 4.52944 18 9.5C18 14.4706 13.9706 18.5 9.00003 18.5C4.02947 18.5 3.05176e-05 14.4706 3.05176e-05 9.5Z" fill="#FF7F37"/>
<path fill-rule="evenodd" clip-rule="evenodd" d="M9.00003 6.5C7.34318 6.5 6.00003 7.84315 6.00003 9.5C6.00003 11.1569 7.34318 12.5 9.00003 12.5C10.6569 12.5 12 11.1569 12 9.5C12 7.84315 10.6569 6.5 9.00003 6.5ZM4.00003 9.5C4.00003 6.73858 6.23861 4.5 9.00003 4.5C11.7615 4.5 14 6.73858 14 9.5C14 12.2614 11.7615 14.5 9.00003 14.5C6.23861 14.5 4.00003 12.2614 4.00003 9.5Z" fill="#FDDA24"/>
<path fill-rule="evenodd" clip-rule="evenodd" d="M18 3.5C18 2.94772 18.4477 2.5 19 2.5H21C21.2652 2.5 21.5196 2.60536 21.7071 2.79289L25.1071 6.19289C25.4977 6.58342 25.4977 7.21658 25.1071 7.60711C24.7166 7.99763 24.0834 7.99763 23.6929 7.60711L20.5858 4.5H19C18.4477 4.5 18 4.05228 18 3.5ZM34.2929 2.79289C34.4805 2.60536 34.7348 2.5 35 2.5H37C37.4455 2.5 37.8373 2.7947 37.9608 3.22272C38.0843 3.65075 37.9098 4.10887 37.5328 4.34623H35.5L32.1328 7.74623C31.702 8.01751 31.1361 7.92176 30.8185 7.52385C30.5009 7.12594 30.5329 6.55291 30.8929 6.19289L34.2929 2.79289Z" fill="#00C389"/>
<path fill-rule="evenodd" clip-rule="evenodd" d="M28 6.5C26.8955 6.5 26 7.39543 26 8.5C26 9.60457 26.8955 10.5 28 10.5C29.1046 10.5 30 9.60457 30 8.5C30 7.39543 29.1046 6.5 28 6.5ZM24 8.5C24 6.29086 25.7909 4.5 28 4.5C30.2092 4.5 32 6.29086 32 8.5C32 10.7091 30.2092 12.5 28 12.5C25.7909 12.5 24 10.7091 24 8.5Z" fill="#00C389"/>
<path fill-rule="evenodd" clip-rule="evenodd" d="M25 26.5C25.5523 26.5 26 26.9477 26 27.5V32.5C26 33.5477 26.9523 34.5 28 34.5C29.0477 34.5 30 33.5477 30 32.5V27.5C30 26.9477 30.4477 26.5 31 26.5C31.5523 26.5 32 26.9477 32 27.5V32.5C32 34.6523 30.1523 36.5 28 36.5C25.8477 36.5 24 34.6523 24 32.5V27.5C24 26.9477 24.4477 26.5 25 26.5Z" fill="#00CCEA"/>
<path fill-rule="evenodd" clip-rule="evenodd" d="M28 20.5C26.9523 20.5 26 21.4523 26 22.5V26.5H30V22.5C30 21.4523 29.0477 20.5 28 20.5ZM24 22.5C24 20.3477 25.8477 18.5 28 18.5C30.1523 18.5 32 20.3477 32 22.5V27.5C32 28.0523 31.5523 28.5 31 28.5H25C24.4477 28.5 24 28.0523 24 27.5V22.5Z" fill="#F5B6CD"/>
</svg>
